HIERARCHY
ROOT Hips
{
	OFFSET -3.958830 18.904000 13.208200
	CHANNELS 6 Xposition Yposition Zposition Zrotation Yrotation Xrotation 
	JOINT LHipJoint
	{
		OFFSET 0.000000 0.000000 0.000000
		CHANNELS 3 Zrotation Yrotation Xrotation
		JOINT LeftUpLeg
		{
			OFFSET 1.800000 -1.400000 0.085000
			CHANNELS 3 Zrotation Yrotation Xrotation
			JOINT LeftLeg
			{
				OFFSET 2.215000 -6.000000 0.000000
				CHANNELS 3 Zrotation Yrotation Xrotation
				JOINT LeftFoot
				{
					OFFSET 2.500000 -6.900000 0.000000
					CHANNELS 3 Zrotation Yrotation Xrotation
					JOINT LeftToeBase
					{
						OFFSET 0.200000 -0.500000 1.950000
						CHANNELS 3 Zrotation Yrotation Xrotation
						End Site
						{
							OFFSET 0.000000 0.000000 0.000000
						}
					}
				}
			}
		}
	}
	JOINT RHipJoint
	{
		OFFSET 0.000000 0.000000 0.000000
		CHANNELS 3 Zrotation Yrotation Xrotation
		JOINT RightUpLeg
		{
			OFFSET -1.800000 -1.400000 0.085000
			CHANNELS 3 Zrotation Yrotation Xrotation
			JOINT RightLeg
			{
				OFFSET -2.215000 -6.000000 0.000000
				CHANNELS 3 Zrotation Yrotation Xrotation
				JOINT RightFoot
				{
					OFFSET -2.500000 -6.900000 0.000000
					CHANNELS 3 Zrotation Yrotation Xrotation
					JOINT RightToeBase
					{
						OFFSET -0.200000 -0.500000 1.950000
						CHANNELS 3 Zrotation Yrotation Xrotation
						End Site
						{
							OFFSET 0.000000 0.000000 0.000000
						}
					}
				}
			}
		}
	}
	JOINT LowerBack
	{
		OFFSET 0.000000 0.000000 0.000000
		CHANNELS 3 Zrotation Yrotation Xrotation
		JOINT Spine
		{
			OFFSET -0.087000 1.940000 -0.288900
			CHANNELS 3 Zrotation Yrotation Xrotation
			JOINT Spine1
			{
				OFFSET 0.000000 1.950000 0.060000
				CHANNELS 3 Zrotation Yrotation Xrotation
				JOINT Neck
				{
					OFFSET 0.000000 0.000000 0.000000
					CHANNELS 3 Zrotation Yrotation Xrotation
					JOINT Neck1
					{
						OFFSET 0.000000 1.600000 0.340000
						CHANNELS 3 Zrotation Yrotation Xrotation
						JOINT Head
						{
							OFFSET 0.000000 1.667000 -0.240000
							CHANNELS 3 Zrotation Yrotation Xrotation
							End Site
							{
								OFFSET 0.000000 0.000000 0.000000
							}
						}
					}
				}
				JOINT LeftShoulder
				{
					OFFSET 0.000000 0.000000 0.000000
					CHANNELS 3 Zrotation Yrotation Xrotation
					JOINT LeftArm
					{
						OFFSET 2.700000 1.550000 -0.730000
						CHANNELS 3 Zrotation Yrotation Xrotation
						JOINT LeftForeArm
						{
							OFFSET 5.450000 0.000000 0.000000
							CHANNELS 3 Zrotation Yrotation Xrotation
							JOINT LeftHand
							{
								OFFSET 3.450000 0.000000 0.000000
								CHANNELS 3 Zrotation Yrotation Xrotation
								JOINT LeftHandIndex1
								{
									OFFSET 0.750000 0.000000 0.000000
									CHANNELS 3 Zrotation Yrotation Xrotation
									End Site
									{
										OFFSET 0.000000 0.000000 0.000000
									}
								}
							}
						}
					}
				}
				JOINT RightShoulder
				{
					OFFSET 0.000000 0.000000 0.000000
					CHANNELS 3 Zrotation Yrotation Xrotation
					JOINT RightArm
					{
						OFFSET -2.700000 1.550000 -0.730000
						CHANNELS 3 Zrotation Yrotation Xrotation
						JOINT RightForeArm
						{
							OFFSET -5.450000 0.000000 0.000000
							CHANNELS 3 Zrotation Yrotation Xrotation
							JOINT RightHand
							{
								OFFSET -3.450000 0.000000 0.000000
								CHANNELS 3 Zrotation Yrotation Xrotation
								JOINT RightHandIndex1
								{
									OFFSET -0.750000 0.000000 0.000000
									CHANNELS 3 Zrotation Yrotation Xrotation
									End Site
									{
										OFFSET 0.000000 0.000000 0.000000
									}
								}
							}
						}
					}
				}
			}
		}
	}
}
MOTION
Frames: 9
Frame Time: 0.016667
4.884000 37.179860 23.073160 37.965029 -3.248061 -1.427831 -16.733571 13.473406 6.137736 -135.103078 17.225786 -62.064177 -56.912823 30.463094 -70.616289 51.334578 20.113714 -20.990758 -57.087320 -57.087510 -32.873480 17.131254 -2.497937 11.123105 -149.857822 -38.485766 64.087003 170.976946 24.069480 136.690252 -1.677483 -23.548389 -60.597842 -136.135850 67.179710 -84.887000 -0.039172 -29.995916 -5.159721 -163.473666 34.714881 -86.144839 -174.300950 35.008977 -114.586924 28.610009 -48.834572 21.777624 -66.778661 19.428059 -71.176527 -39.663590 20.754850 -59.412690 101.897226 -10.133282 -44.049627 13.732924 77.546847 -114.570943 174.624217 -3.041038 162.292604 -8.567138 -7.802911 -64.379160 -33.246660 25.312380 -88.743460 -112.577148 42.112276 -51.310250 -57.873998 -69.454023 -59.516517 175.424780 9.621716 119.927544 62.047319 16.562713 44.019220 37.595100 27.865840 91.442120 
0.643200 35.478790 6.384020 -24.271824 -3.012504 9.194352 -14.732621 4.671052 6.989121 17.422050 -19.628708 -32.074047 87.722139 -30.946178 -142.859828 44.289482 22.301597 -24.385923 -54.675070 -53.789780 -33.767890 20.381651 -7.187089 1.673540 -128.696004 -48.212727 67.696075 -20.252117 -57.499306 25.458356 -7.136127 -16.032544 -55.736396 -139.207480 69.327600 -88.513950 -7.752774 3.442548 -11.529171 39.648746 -35.923422 -112.561965 -156.833956 -49.320551 51.938485 -16.153068 9.111243 -115.209427 -166.769847 -72.801001 -37.533741 -63.580110 9.473010 26.850000 82.254103 8.355853 46.097102 -132.240122 -61.204016 19.933457 175.979949 3.350085 79.876344 -2.169981 -26.775500 -68.320660 -33.944340 37.989000 -78.413560 -27.513124 44.645511 93.504351 -152.597760 22.230432 -56.609239 -165.208595 -3.866509 -130.079226 31.716327 36.673999 44.284720 37.257340 26.011840 92.082710 
-1.598840 36.561410 -3.966550 62.708616 -0.592024 7.498896 -16.582097 9.128096 6.006561 -155.531973 6.595469 -55.559672 175.633024 -73.930532 -120.917892 41.910289 16.804725 -26.107649 -52.976780 -53.684550 -34.908650 18.372593 -1.896222 8.350474 95.111302 31.107979 63.052210 37.715747 25.754286 43.673600 -2.196947 -21.797442 -57.962393 -144.239700 73.783540 -99.797080 -1.276844 -7.497609 -11.415191 72.026172 -52.566414 -168.434384 -171.567387 -32.938725 68.133280 0.383445 -4.670366 -72.469272 -18.442466 -18.868596 -133.551653 -1.131440 1.373500 96.255170 -46.718914 -32.896429 20.108487 -134.017530 0.021799 47.541612 176.022298 4.020744 120.901260 -21.578163 -14.784503 -64.625340 -22.050950 50.450780 -61.795900 20.793299 49.509819 39.009739 123.307762 -21.334566 -25.541933 -178.514100 -8.218953 -112.039622 54.094164 38.066672 41.118490 37.124480 25.171600 92.855640 
0.566290 35.344980 -7.142040 41.228935 7.707987 2.491111 -12.000474 4.391525 2.863632 116.103483 -32.508902 -47.273420 -63.477066 47.158294 -51.591924 35.398864 25.332057 -25.993561 -52.482410 -52.487170 -33.849350 22.861153 -10.203850 8.502923 94.278135 35.747153 54.443861 -103.023947 -83.504185 60.980202 -6.030422 -21.100297 -55.152210 -139.019610 75.034920 -95.575450 -12.680228 21.941979 -12.951677 42.769481 44.071775 69.357249 -142.301607 -56.672330 57.441297 -9.729189 -13.937721 -97.730531 10.889551 -77.463886 -177.136434 -15.404590 11.569000 66.269230 19.020316 -31.566980 37.096516 -129.139903 -40.707638 25.547931 177.671253 2.368570 135.956496 -20.332106 -24.692285 -57.833340 -27.598680 53.321650 -64.080060 45.269354 66.630331 17.505758 139.190084 -40.150501 -92.023889 -168.865226 6.218617 -134.658540 55.766269 43.080092 43.193240 38.467880 25.813090 92.941320 
-2.298790 34.432090 -6.367930 107.935560 -7.727224 3.158594 -15.083333 10.995877 3.284249 133.537674 -27.575682 -49.786358 -127.012535 40.179437 -107.445142 41.964985 23.560624 -24.020295 -53.275660 -53.499210 -33.789210 19.073940 -7.066878 6.758985 -160.758750 -46.656196 67.560529 -176.194211 -56.698227 135.541465 1.311126 -36.667219 -65.311967 -142.398920 75.816350 -97.465240 -4.451156 -3.707742 -10.336173 90.264509 55.162320 115.979645 -138.594669 -31.967475 38.535025 -42.370869 -19.826630 -64.873800 24.484035 -57.124325 175.069536 2.703380 17.571630 59.927830 12.872039 -49.338458 61.802199 -136.130741 -33.486066 90.715734 179.472393 11.552375 111.205695 -12.427998 -27.829554 -59.636210 -26.602770 54.798900 -62.321040 26.414685 56.850908 -21.472877 179.124228 -49.765170 64.780238 167.858291 -6.629154 -145.976786 59.276390 43.253701 42.535590 37.168030 25.545470 93.417540 
-0.512090 35.685460 -6.464580 146.148312 -16.633814 2.444573 -15.418238 9.011543 4.016279 -176.881414 -10.718930 -63.174509 -149.327306 -35.338049 -129.460837 48.608848 23.802133 -21.446853 -55.212600 -53.984790 -34.663630 18.885323 -6.645549 7.583746 -172.964213 -54.644918 62.828468 -169.367447 -64.170316 125.963288 7.962610 -37.652248 -70.993247 -146.763850 74.119470 -98.578310 -4.568586 -1.577582 -11.071385 -104.880971 -43.026893 -8.055971 -2.224413 -14.255345 -163.473190 -12.702073 28.078602 -58.230989 38.858467 -38.040904 161.312343 27.117960 6.050010 77.843520 -8.564046 -54.405906 82.708913 -90.761164 27.181527 9.958664 170.128824 2.524277 -75.260271 -27.525057 -19.425482 -65.710820 -15.718060 40.788090 -70.647450 58.629815 24.238606 -48.429158 139.592344 -17.132012 -2.132857 167.148829 -14.673021 -29.690632 23.871885 31.376268 40.432390 36.313340 26.255440 93.433330 
-1.212370 35.225930 -7.741030 149.754996 6.683730 3.339007 -12.081571 3.670786 1.370531 -67.694098 31.704597 -28.660791 -136.137186 7.331059 -125.069067 49.076691 22.997279 -21.346389 -55.134710 -54.847250 -34.684650 22.992043 -12.031011 8.188141 111.685250 27.221527 69.664113 163.665320 -42.873428 140.494638 7.663806 -31.534735 -67.599693 -148.466080 72.857130 -102.081470 -13.636984 24.231089 -13.155317 43.913461 -79.907257 -173.356044 -44.749691 -0.172096 141.358798 -38.653345 11.671853 10.724520 60.398889 -69.316419 118.896087 -4.002370 -13.818930 82.789450 148.815681 -18.694641 -2.811340 -178.948491 -75.877803 70.363767 -171.874441 -8.649036 -20.813779 -16.613151 -29.286343 -69.670481 -10.069580 35.252360 -73.395980 -28.174835 -71.681258 -70.243321 164.835100 -9.142358 -95.583561 167.184730 -12.085565 -52.684752 56.619337 48.720914 39.726450 36.361310 26.551710 93.220360 
-0.520420 36.478060 -8.252470 108.769667 -3.492720 2.877541 -14.214800 8.704381 2.693106 -92.283488 29.467983 -44.293168 178.176416 -27.261286 -137.293443 41.914028 24.595615 -23.745379 -53.432900 -53.471220 -33.994520 20.276912 -7.520885 8.251885 76.528864 34.827836 41.863049 176.523870 -58.415437 129.168162 0.803654 -33.431785 -63.504796 -143.720400 76.277930 -100.358230 -6.806283 6.028515 -9.868374 26.076334 5.726005 66.741973 -53.840290 -71.233065 -83.483507 -53.268275 -12.518147 -48.647214 10.454272 -82.748326 175.035225 1.358860 -7.071240 49.004670 43.444425 -54.989123 33.836649 -176.703371 -41.912703 49.045296 171.955066 4.784292 90.029807 -17.690365 -25.766045 -62.016290 -21.062470 53.959160 -60.021190 10.957598 43.043233 -22.251412 134.491878 -53.919023 -33.621323 -168.896939 -5.916490 -107.820944 59.441457 44.902231 41.612280 37.532990 25.215210 93.434870 
-4.380080 32.195140 -7.950720 79.777134 7.718055 -1.010392 -12.830865 5.320848 3.614093 114.260915 -37.611575 -47.439944 104.202510 -75.615999 -81.523885 44.662478 29.091193 -25.297239 -55.608340 -52.783320 -34.357570 21.815721 -8.959156 8.574635 -139.005635 -41.188946 61.734284 60.277659 36.878871 47.898896 1.573958 -30.327936 -66.174488 -146.018220 76.909920 -95.907240 -12.155469 14.918406 -13.836070 96.984585 43.313199 121.642381 76.232976 28.451940 160.666715 81.671119 -30.827733 -6.648376 -145.980956 -54.088006 -52.993545 -30.439970 19.020950 50.269360 -6.545736 47.348213 -30.267124 -134.857120 -6.834529 -15.248651 175.617812 10.534900 19.346488 -27.260091 -12.688119 -69.278940 -24.849790 43.831630 -74.579010 -170.346581 -2.835160 36.744553 -152.378482 54.959843 -29.912194 163.843018 -2.674436 -93.356945 70.897409 55.127243 41.949020 35.449940 26.970950 94.798530 
